# xmcd
#
# Track frame offsets: 
#        150
#        19650
#        38060
#        53135
#        70152
#        92745
#        119382
#        146560
#        163565
#        187265
#        209427
#        231095
#        249062
#        269445
#        285742
#
# Disc length: 4104 seconds
#
# Revision: 7
# Processed by: cddbd v1.5.2PL0 Copyright (c) Steve Scherf et al.
# Submitted via: ExactAudioCopy v1.0b3
#
DISCID=d610060f
DTITLE=Fleetwood Mac with Guests - Blues Jam In Chicago [Disk 1]
DYEAR=2004
DGENRE=Blues
TTITLE0=Watch Out
TTITLE1=Ooh Baby
TTITLE2=South Indiana (take 1)
TTITLE3=South Indiana (take 2)
TTITLE4=Last Night
TTITLE5=Red Hot Jam (take 1)
TTITLE6=Red Hot Jam (take 2)
TTITLE7=I'm Worried
TTITLE8=I Held My Baby Last Night
TTITLE9=Madison Blues
TTITLE10=I Can't Hold Out
TTITLE11=Bobby's Rock
TTITLE12=I Need Your Love
TTITLE13=Horton's Boogie Woogie
TTITLE14=I Got The Blues
EXTD=veeeery cool! \nSergio
EXTT0=
EXTT1=
EXTT2=
EXTT3=
EXTT4=
EXTT5=
EXTT6=
EXTT7=
EXTT8=
EXTT9=
EXTT10=
EXTT11=
EXTT12=
EXTT13=
EXTT14=
PLAYORDER=
